<svg fill="none" height="184" viewBox="0 0 778 184" width="778" xmlns="http://www.w3.org/2000/svg" class="h-5 w-auto"><path d="M348.988 106.048c0 5.23-.348 9.936-1.045 14.12H242.132c.871 10.459 4.528 18.652 10.973 24.578 6.444 5.927 14.369 8.89 23.775 8.89 13.585 0 23.252-5.839 29-17.518h39.451c-4.181 13.945-12.193 25.45-24.037 34.514-11.844 8.89-26.387 13.336-43.63 13.336-13.934 0-26.475-3.051-37.622-9.152-10.973-6.275-19.595-15.078-25.865-26.409-6.096-11.331-9.145-24.404-9.145-39.221 0-14.991 3.049-28.152 9.145-39.483 6.096-11.33 14.63-20.046 25.603-26.147 10.973-6.101 23.601-9.152 37.884-9.152 13.759 0 26.039 2.964 36.838 8.89 10.973 5.927 19.42 14.381 25.342 25.363 6.096 10.808 9.144 23.272 9.144 37.391zm-37.883-10.459c-.174-9.413-3.57-16.909-10.189-22.487-6.619-5.752-14.718-8.628-24.298-8.628-9.057 0-16.72 2.789-22.991 8.367-6.096 5.404-9.841 12.987-11.234 22.748h68.712zM510.236 106.048c0 5.23-.348 9.936-1.045 14.12H403.38c.871 10.459 4.528 18.652 10.973 24.578 6.444 5.927 14.369 8.89 23.775 8.89 13.586 0 23.252-5.839 29-17.518h39.451c-4.181 13.945-12.193 25.45-24.037 34.514-11.843 8.89-26.387 13.336-43.63 13.336-13.934 0-26.475-3.051-37.622-9.152-10.973-6.275-19.595-15.078-25.865-26.409-6.096-11.331-9.144-24.404-9.144-39.221 0-14.991 3.048-28.152 9.144-39.483 6.096-11.33 14.63-20.046 25.604-26.147 10.973-6.101 23.6-9.152 37.883-9.152 13.759 0 26.039 2.964 36.838 8.89 10.973 5.927 19.42 14.381 25.342 25.363 6.096 10.808 9.144 23.272 9.144 37.391zm-37.883-10.459c-.174-9.413-3.57-16.909-10.189-22.487-6.619-5.752-14.718-8.628-24.297-8.628-9.058 0-16.721 2.789-22.992 8.367-6.096 5.404-9.84 12.987-11.234 22.748h68.712zM580.125 66.546v70.705c0 4.88 1.288 8.105 3.553 10.371 2.438 2.092 6.444 3.138 12.018 3.138h16.982v30.854h-22.991c-30.829 0-45.579-15.767-45.579-45.75V66.546h-19.393v-30.5h19.393V0h36.017v36.046h32.553v30.5h-32.553zM702.495 183.968c-13.934 0-26.475-3.051-37.622-9.152-11.147-6.275-19.943-15.078-26.387-26.409-6.271-11.331-9.406-24.404-9.406-39.221 0-14.817 3.222-27.89 9.667-39.221 6.619-11.33 15.589-20.047 26.91-26.148 11.321-6.275 23.949-9.413 37.883-9.413 13.934 0 26.562 3.138 37.883 9.413 11.322 6.101 20.205 14.817 26.649 26.148 6.619 11.33 9.928 24.404 9.928 39.221 0 14.817-3.396 27.89-10.189 39.221-6.619 11.331-15.676 20.134-27.172 26.409-11.321 6.101-24.036 9.152-38.144 9.152zm0-31.9c6.619 0 12.802-1.569 18.55-4.707 5.922-3.312 10.624-8.193 14.108-14.642 3.483-6.45 5.225-14.294 5.225-23.533 0-13.771-3.657-24.317-10.973-31.639-7.141-7.495-15.937-11.243-26.387-11.243-10.451 0-19.247 3.748-26.388 11.243-6.967 7.322-10.45 17.868-10.45 31.639s3.396 24.404 10.189 31.9c6.967 7.321 15.676 10.982 26.126 10.982z" fill="#000"></path><path d="M174.137 0h-70.216l70.216 105.325V0z" fill="#5BCC5A"></path><path d="M0 183.968V0h50.707l123.431 183.968h-52.185L40.726 64.599v119.369H0z" fill="#000"></path></svg>
